<svg xmlns="http://www.w3.org/2000/svg" viewBox="0 0 100 125" x="0px" y="0px"><title>Noun_Project_50Icon_5px_grid</title><g data-name="Capa 2"><path d="M66.93,38.35,68.85,38A.18.18,0,0,1,69,38l3.17,4.36.1.12L75,45.2a2.18,2.18,0,0,0,1.55.64,2.14,2.14,0,0,0,1.54-.64l5.14-5.13a2.21,2.21,0,0,0,.64-1.55A2.18,2.18,0,0,0,83.22,37l-2.7-2.7-.11-.1-4.19-3a2,2,0,0,0-.53-1.84l-1.11-1.11a1,1,0,0,0-1.42,1.42l1.08,1.09,0,0L69,36a3.15,3.15,0,0,0-.53,0l-1.91.39A2.43,2.43,0,0,1,64.68,36h0l-.16-.12,0,0-.15-.13h0l-4.4-4.4h0l-.55-.56a.74.74,0,0,1,0-1.06l2.94-2.94a2.73,2.73,0,0,0,0-3.86,7.78,7.78,0,0,0-8.29-1.75l-.27-.27a8.85,8.85,0,0,1,11.51.85l5,5a1,1,0,0,0,1.42-1.42l-5-5a10.86,10.86,0,0,0-14.89-.43,1.29,1.29,0,0,0-.42.9,1.27,1.27,0,0,0,.37.93L53,22.93a1.27,1.27,0,0,0,1.43.25,5.72,5.72,0,0,1,6.49,1.14.72.72,0,0,1,0,1L58,28.28A2.77,2.77,0,0,0,57.8,32l-8.32,8L26.18,16.67l-.12-.12h0l-.12-.09h0a1.65,1.65,0,0,0-.92-.27,1.63,1.63,0,0,0-.92.27h0l-.11.09h0l-.13.12L17.2,23.28a1.68,1.68,0,0,0,0,2.37l3.45,3.45,4.64,4.64a1,1,0,0,0,1.42,0,1,1,0,0,0,0-1.43l-3.93-3.92,2-2a1,1,0,0,0,0-1.43,1,1,0,0,0-1.42,0l-2,2-2.5-2.5,3.68-3.68L77.76,76l-3.68,3.69-2.51-2.5,2-2a1,1,0,0,0-1.42-1.43l-2,2L59.38,65l2-2A1,1,0,0,0,60,61.53l-2,2L47.18,52.78l2-2a1,1,0,0,0,0-1.42,1,1,0,0,0-1.43,0l-2,2L35,40.58l2-2a1,1,0,0,0-1.42-1.42l-2,2-4-4a1,1,0,1,0-1.42,1.42L40.28,48.73,16.09,71.84a2.81,2.81,0,0,0-.88,2,2.86,2.86,0,0,0,.83,2L20.17,80a2.85,2.85,0,0,0,3.86.15,2,2,0,0,0,.21-.2L47.35,55.8,72.89,81.33a1.66,1.66,0,0,0,1.19.49,1.63,1.63,0,0,0,1.18-.49l6.61-6.6a1.68,1.68,0,0,0,0-2.38L56.13,46.61l8.15-8.54A4.44,4.44,0,0,0,66.93,38.35Zm8.1-5.6,4.13,3,2.64,2.64a.18.18,0,0,1,0,.13.17.17,0,0,1,0,.12l-5.14,5.14a.18.18,0,0,1-.25,0l-2.64-2.64-3-4.13ZM17.47,74.48a.79.79,0,0,1-.24-.51.28.28,0,0,1,0-.09.84.84,0,0,1,.26-.59L37.94,53.75l.44.44L17.7,74.71ZM20,77l-.83-.83L39.8,55.61l.67.67Zm2.84,1.64a.84.84,0,0,1-.43.24l-.17,0a.8.8,0,0,1-.59-.25l-.23-.23L41.9,57.7l.43.44ZM43.72,56.68,39.4,52.36l2.31-2.2,4.22,4.21Zm36.5,16.86-1,1L24,19.36l1-1L48.75,42.07l1.57,1.57ZM54.7,45.18l-3.8-3.8,8.32-7.94,3.43,3.43Z"/></g><text x="0" y="115" fill="#000000" font-size="5px" font-weight="bold" font-family="'Helvetica Neue', Helvetica, Arial-Unicode, Arial, Sans-serif">Created by Desireé Bolívar</text><text x="0" y="120" fill="#000000" font-size="5px" font-weight="bold" font-family="'Helvetica Neue', Helvetica, Arial-Unicode, Arial, Sans-serif">from the Noun Project</text></svg>