<svg xmlns="http://www.w3.org/2000/svg" xmlns:xlink="http://www.w3.org/1999/xlink" version="1.1" x="0px" y="0px" viewBox="0 0 100 125" style="enable-background:new 0 0 100 100;" xml:space="preserve"><g><g><path d="M75.5,13.48h-51c-0.88,0-1.6,0.72-1.6,1.6v67.67c0,0.88,0.72,1.6,1.6,1.6h2.73v1.18c0,0.55,0.45,1,1,1h1.26    c0.55,0,1-0.45,1-1v-1.18h39.02v1.18c0,0.55,0.45,1,1,1h1.26c0.55,0,1-0.45,1-1v-1.18h2.73c0.88,0,1.6-0.72,1.6-1.6V15.08    C77.1,14.2,76.38,13.48,75.5,13.48z M48.04,65.73v-9.51c0-0.33-0.27-0.6-0.6-0.6h-3c-0.33,0-0.6,0.27-0.6,0.6v9.51h-0.99v-9.51    c0-0.33-0.27-0.6-0.6-0.6h-3c-0.33,0-0.6,0.27-0.6,0.6v9.51h-0.99v-9.51c0-0.33-0.27-0.6-0.6-0.6h-3c-0.33,0-0.6,0.27-0.6,0.6    v9.51h-0.99v-9.51c0-0.33-0.27-0.6-0.6-0.6h-3c-0.33,0-0.6,0.27-0.6,0.6v9.51H24.1V49.51H65h8h2.9v16.22H48.04z M46.84,65.73h-1.8    v-8.91h1.8V65.73z M41.66,65.73h-1.8v-8.91h1.8V65.73z M36.47,65.73h-1.8v-8.91h1.8V65.73z M31.29,65.73h-1.8v-8.91h1.8V65.73z     M36.29,30.89h-6.8v-2.77h6.8V30.89z M28.89,32.09h8h20.78h3h4.1h3h2.19h3h2.95v16.22h-2.3v-3.37c0-0.33-0.27-0.6-0.6-0.6h-0.77    v-5.48c0-1.66-1.35-3.01-3.01-3.01s-3.01,1.35-3.01,3.01v5.48H65c-0.33,0-0.6,0.27-0.6,0.6v3.37H41.52v-2.44v-2.65v-2.65    c0-0.33-0.27-0.6-0.6-0.6H28.89c-0.33,0-0.6,0.27-0.6,0.6v2.65v2.65v2.44H24.1V32.09H28.89z M58.4,30.89l1.76-8.91h1.78    l-1.76,8.91H58.4z M67.17,30.89h-1.8v-8.91h1.8V30.89z M72.35,30.89h-1.8v-8.91h1.8V30.89z M71.03,44.34h-3.62v-5.48    c0-1,0.81-1.81,1.81-1.81s1.81,0.81,1.81,1.81V44.34z M66.81,45.54h4.81h0.77v2.77h-6.8v-2.77H66.81z M40.32,45.27H29.49v-1.45    h10.84V45.27z M29.49,46.47h10.84v1.45H29.49V46.47z M40.32,42.63H29.49v-1.45h10.84V42.63z M24.5,14.68h51    c0.22,0,0.4,0.18,0.4,0.4v15.82h-2.35v-9.51c0-0.33-0.27-0.6-0.6-0.6h-3c-0.33,0-0.6,0.27-0.6,0.6v9.51h-0.99v-9.51    c0-0.33-0.27-0.6-0.6-0.6h-3c-0.33,0-0.6,0.27-0.6,0.6v9.51H61.4l1.86-9.39c0.03-0.18-0.01-0.36-0.12-0.5    c-0.11-0.14-0.28-0.22-0.46-0.22h-3c-0.29,0-0.53,0.2-0.59,0.48l-1.9,9.63H37.49v-3.37c0-0.33-0.27-0.6-0.6-0.6h-8    c-0.33,0-0.6,0.27-0.6,0.6v3.37H24.1V15.08C24.1,14.86,24.28,14.68,24.5,14.68z M24.1,82.74V66.93h4.79h3h2.18h3h2.19h3h2.19h3    h1.96v16.22H24.5C24.28,83.15,24.1,82.97,24.1,82.74z M75.5,83.15H50.6V66.93h25.3v15.82C75.9,82.97,75.72,83.15,75.5,83.15z"/><path d="M66.32,74.35h-6.15c-0.33,0-0.6,0.27-0.6,0.6s0.27,0.6,0.6,0.6h6.15c0.33,0,0.6-0.27,0.6-0.6S66.66,74.35,66.32,74.35z"/><path d="M39.82,74.35h-6.15c-0.33,0-0.6,0.27-0.6,0.6s0.27,0.6,0.6,0.6h6.15c0.33,0,0.6-0.27,0.6-0.6S40.16,74.35,39.82,74.35z"/></g></g><text x="0" y="115" fill="#000000" font-size="5px" font-weight="bold" font-family="'Helvetica Neue', Helvetica, Arial-Unicode, Arial, Sans-serif">Created by 뚱뜐 개미는</text><text x="0" y="120" fill="#000000" font-size="5px" font-weight="bold" font-family="'Helvetica Neue', Helvetica, Arial-Unicode, Arial, Sans-serif">from the Noun Project</text></svg>