<svg xmlns="http://www.w3.org/2000/svg" viewBox="0 0 128 160" x="0px" y="0px"><title>17</title><g data-name="1"><path d="M103.19571,52.88443v5.98413a1.02655,1.02655,0,0,1-2.0531,0V52.88443a1.02655,1.02655,0,1,1,2.0531,0Zm-1.02655,13.9325a1.02693,1.02693,0,0,0-1.02655,1.02655v5.98413a1.02655,1.02655,0,1,0,2.0531,0V67.84348A1.02673,1.02673,0,0,0,102.16916,66.81693Zm0,14.95983a1.02689,1.02689,0,0,0-1.02655,1.02655V88.7869a1.02655,1.02655,0,0,0,2.0531,0V82.80331A1.0267,1.0267,0,0,0,102.16916,81.77676Zm0-44.87793a1.02688,1.02688,0,0,0-1.02655,1.02649V43.909a1.02655,1.02655,0,1,0,2.0531,0V37.92532A1.02669,1.02669,0,0,0,102.16916,36.89883Zm1.02655-18.32013V28.94992a1.02655,1.02655,0,0,1-2.0531,0V19.60526H97.08878v89.816a1.0269,1.0269,0,0,1-1.02655,1.02655H32.96384v4.30865h68.17877V97.76236a1.02655,1.02655,0,0,1,2.0531,0v18.02069a1.02674,1.02674,0,0,1-1.02655,1.02655H31.93729a1.02677,1.02677,0,0,1-1.02655-1.02655v-5.3352h-5.0799a1.0267,1.0267,0,0,1-1.02655-1.02655V12.217a1.02674,1.02674,0,0,1,1.02655-1.02655H96.06223A1.02694,1.02694,0,0,1,97.08878,12.217v5.3352h5.08038A1.0267,1.0267,0,0,1,103.19571,18.5787Zm-8.16,0V13.2435H26.85739v95.15124H95.03568ZM91.98343,30.0773V51.45212a1.02685,1.02685,0,0,1-1.02655,1.02655H88.4866C88.37,74.8588,88.52243,79.5939,88.631,80.33389a1.04789,1.04789,0,0,1-.034.77521c-.33429.73016-.391.80121-8.39832.84894v1.98547a1.02685,1.02685,0,0,1-1.02655,1.02655H57.79733a1.02684,1.02684,0,0,1-1.02649-1.02655V81.90378c-2.36975-.017-4.694-.0354-6.89691-.05432l-.0003.00006-.00031-.00006c-.9801-.00843-1.94177-.01691-2.8667-.02533A1.02657,1.02657,0,0,1,47.016,79.771c.59564.00543,1.2124.01092,1.83112.01635V58.65665a1.02684,1.02684,0,0,1,1.02655-1.02649H67.053a1.02652,1.02652,0,1,1,0,2.053H50.90018V79.805c1.8977.016,3.863.03156,5.87066.04572V77.3591a1.02669,1.02669,0,0,1,1.02649-1.02655H79.17215A1.0267,1.0267,0,0,1,80.1987,77.3591v2.54511c3.67328-.02613,5.47577-.077,6.35852-.1211-.135-2.05957-.20032-7.1203-.15546-20.09991H75.45029a1.02652,1.02652,0,1,1,0-2.053H86.40952c.00653-1.60559.01452-3.31684.02417-5.15149H84.37247a1.02673,1.02673,0,0,1-1.02655-1.02655V30.0773a1.02677,1.02677,0,0,1,1.02655-1.02655h2.23486l.01672-1.81183H68.07956v8.80255A1.02709,1.02709,0,0,1,67.053,37.068H50.90018V47.39627a1.02655,1.02655,0,0,1-2.0531,0V36.04147a1.02673,1.02673,0,0,1,1.02655-1.02655H66.02646v-7.776H35.25888v7.39417H40.1442a1.02655,1.02655,0,0,1,0,2.0531H35.25888V79.65213l2.0777.02271,4.743-6.54352a1.0266,1.0266,0,0,1,1.66284,1.2044L38.68723,81.3096a1.05249,1.05249,0,0,1-.84205.4245l-3.62493-.04022a1.02674,1.02674,0,0,1-1.01447-1.02655v-54.455a1.02678,1.02678,0,0,1,1.02655-1.02655H87.66074A1.02588,1.02588,0,0,1,88.68729,26.223l-.02692,2.82776h2.29651A1.02689,1.02689,0,0,1,91.98343,30.0773ZM78.14566,80.93741V78.38565H58.82388V82.917H78.14566ZM89.93039,31.10385H85.399V50.42563h4.53143ZM87.6647,91.12314H34.23233a1.02655,1.02655,0,0,0,0,2.0531H87.6647a1.02655,1.02655,0,0,0,0-2.0531ZM78.504,97.13492H43.393a1.02652,1.02652,0,1,0,0,2.053H78.504a1.02652,1.02652,0,1,0,0-2.053Z"/></g><text x="0" y="143" fill="#000000" font-size="5px" font-weight="bold" font-family="'Helvetica Neue', Helvetica, Arial-Unicode, Arial, Sans-serif">Created by Lina Rafia</text><text x="0" y="148" fill="#000000" font-size="5px" font-weight="bold" font-family="'Helvetica Neue', Helvetica, Arial-Unicode, Arial, Sans-serif">from the Noun Project</text></svg>